<svg xmlns="http://www.w3.org/2000/svg" xmlns:xlink="http://www.w3.org/1999/xlink" version="1.1" x="0px" y="0px" viewBox="0 0 90 112.5" enable-background="new 0 0 90 90" xml:space="preserve"><g><path d="M45.002,76.019c-4.405,0-7.242-0.628-8.43-1.867c-0.33-0.344-0.479-0.678-0.545-0.931   c-0.141-0.286-0.168-0.608-0.072-0.922c0.09-0.295,0.365-1.192,3.561-2.033c0.275-0.095,1.133-0.835,1.691-1.431   c1.191-1.193,0.997-3.436,0.994-3.458l-0.004-13.616c0-3.543-2.26-8.477-2.57-9.137c-2.531-3.604-3.172-13.719-3.197-14.15   l-0.002-13.492c0-0.553,0.447-1,1-1H52.57c0.553,0,1,0.447,1,1v13.432c-0.028,0.492-0.67,10.606-3.199,14.21   c-0.31,0.661-2.568,5.602-2.568,9.138v13.521c-0.007,0.119-0.203,2.36,0.971,3.53c0.58,0.62,1.434,1.36,1.77,1.472   c3.135,0.823,3.41,1.72,3.501,2.015c0.097,0.313,0.069,0.636-0.071,0.922c-0.066,0.254-0.215,0.588-0.545,0.932   C52.238,75.391,49.403,76.019,45.002,76.019z M38.135,72.865c0.475,0.364,2.058,1.153,6.867,1.153c4.805,0,6.388-0.788,6.862-1.152   c-0.452-0.217-1.2-0.484-1.892-0.667c-1.039-0.344-2.28-1.615-2.637-1.997c-1.826-1.821-1.541-4.891-1.528-5.021l-0.005-13.421   c0-4.238,2.688-9.846,2.803-10.082c0.026-0.054,0.057-0.105,0.093-0.154c1.854-2.541,2.704-10.37,2.874-13.172L51.57,15.981H38.428   v12.432c0.169,2.742,1.018,10.572,2.872,13.111c0.035,0.049,0.066,0.101,0.093,0.154c0.114,0.236,2.805,5.844,2.805,10.082v13.521   c0.008,0.03,0.291,3.1-1.555,4.945c-0.336,0.359-1.58,1.63-2.557,1.955C39.351,72.377,38.59,72.649,38.135,72.865z"/></g><text x="0" y="105" fill="#000000" font-size="5px" font-weight="bold" font-family="'Helvetica Neue', Helvetica, Arial-Unicode, Arial, Sans-serif">Created by Rob Anderson</text><text x="0" y="110" fill="#000000" font-size="5px" font-weight="bold" font-family="'Helvetica Neue', Helvetica, Arial-Unicode, Arial, Sans-serif">from the Noun Project</text></svg>