<svg xmlns="http://www.w3.org/2000/svg" xmlns:xlink="http://www.w3.org/1999/xlink" version="1.1" x="0px" y="0px" viewBox="0 0 242.988 250.89249999999998" enable-background="new 0 0 242.988 200.714" xml:space="preserve"><g><path fill="none" d="M178.478,106.695h-7.853v27.675h7.853c4.429,0,6-1.571,6-6.005v-13.67   C184.478,112.29,183.893,106.695,178.478,106.695z"/><path fill="none" d="M180.478,92.695h-14.835l-0.018-2.482c-0.043-6.1-0.143-15.343-0.261-19.552H54.984   c-0.146,9.996-0.268,50.245-0.318,77.857c0,11.551,9.398,20.952,20.951,20.952h69.057c10.812,0,19.774-8.104,20.846-18.849   l0.225-2.252h14.733c9.374,0,17-7.628,17-17.005v-21.67C197.478,100.321,189.851,92.695,180.478,92.695z M189.478,128.365   c0,7.199-3.804,11.005-11,11.005h-12.853v-37.675h12.853c6.683,0,11,5.103,11,13V128.365z"/><path d="M180.478,87.695h-9.872c-0.057-7.032-0.184-18.728-0.407-19.974l-0.367-2.061H50.464l-0.37,2.058   c-0.245,1.364-0.374,51.203-0.429,80.795c0,14.312,11.642,25.957,25.951,25.957h69.057c12.626,0,23.216-8.923,25.499-21.101h10.305   c12.13,0,22-9.871,22-22.005v-21.67C202.478,97.564,192.608,87.695,180.478,87.695z M197.478,131.365   c0,9.377-7.626,17.005-17,17.005h-14.733l-0.225,2.252c-1.071,10.745-10.033,18.849-20.846,18.849H75.617   c-11.553,0-20.951-9.401-20.951-20.952c0.051-27.612,0.172-67.861,0.318-77.857h110.38c0.118,4.209,0.218,13.452,0.261,19.552   l0.018,2.482h14.835c9.374,0,17,7.626,17,17V131.365z"/><path d="M178.478,101.695h-12.853v37.675h12.853c7.196,0,11-3.806,11-11.005v-13.67   C189.478,106.798,185.16,101.695,178.478,101.695z M184.478,128.365c0,4.434-1.571,6.005-6,6.005h-7.853v-27.675h7.853   c5.416,0,6,5.595,6,8V128.365z"/></g><text x="0" y="215.714" fill="#000000" font-size="5px" font-weight="bold" font-family="'Helvetica Neue', Helvetica, Arial-Unicode, Arial, Sans-serif">Created by Josue Oquendo</text><text x="0" y="220.714" fill="#000000" font-size="5px" font-weight="bold" font-family="'Helvetica Neue', Helvetica, Arial-Unicode, Arial, Sans-serif">from the Noun Project</text></svg>