<svg xmlns="http://www.w3.org/2000/svg" xmlns:xlink="http://www.w3.org/1999/xlink" version="1.1" x="0px" y="0px" viewBox="0 0 90 112.5" enable-background="new 0 0 90 90" xml:space="preserve"><g><path d="M56.425,8.833c0,0-6.475,62.654-6.461,64.402c0.01,1.744,3.623,4.439,3.623,4.439c5.082,3.32-5.818,3.494-8.157,3.494   c-0.273,0-0.43-0.002-0.43-0.002s-0.156,0.002-0.43,0.002c-2.337,0-13.24-0.174-8.16-3.494c0,0,3.615-2.695,3.629-4.439   c0.012-1.748-6.465-64.402-6.465-64.402H45H56.425 M56.425,6.833H45H33.575c-0.566,0-1.105,0.24-1.485,0.66   c-0.379,0.421-0.562,0.982-0.504,1.546c2.532,24.498,6.301,61.409,6.45,64.118c-0.203,0.564-1.514,1.926-2.777,2.881   c-1.796,1.193-2.493,2.516-2.07,3.934c0.309,1.037,0.951,3.197,11.383,3.197c0.22,0,0.369-0.002,0.43-0.002s0.209,0.002,0.43,0.002   c10.43,0,11.073-2.16,11.381-3.197c0.422-1.418-0.275-2.74-2.072-3.934c-1.264-0.955-2.574-2.318-2.773-2.881   c0.125-2.467,3.908-39.541,6.449-64.118c0.058-0.563-0.125-1.125-0.504-1.546C57.531,7.073,56.991,6.833,56.425,6.833L56.425,6.833   z"/></g><text x="0" y="105" fill="#000000" font-size="5px" font-weight="bold" font-family="'Helvetica Neue', Helvetica, Arial-Unicode, Arial, Sans-serif">Created by Rob Anderson</text><text x="0" y="110" fill="#000000" font-size="5px" font-weight="bold" font-family="'Helvetica Neue', Helvetica, Arial-Unicode, Arial, Sans-serif">from the Noun Project</text></svg>