<svg xmlns="http://www.w3.org/2000/svg" xmlns:xlink="http://www.w3.org/1999/xlink" version="1.1" x="0px" y="0px" viewBox="0 0 90 112.5" enable-background="new 0 0 90 90" xml:space="preserve"><g><path d="M45.096,71.66h-0.193c-9.35,0-9.858-0.895-10.161-1.43c-0.107-0.189-0.157-0.4-0.148-0.605l-4.947-50.188   c-0.028-0.28,0.064-0.56,0.254-0.77c0.19-0.209,0.459-0.328,0.741-0.328h28.717c0.282,0,0.552,0.119,0.741,0.328   c0.189,0.21,0.282,0.489,0.254,0.77l-4.947,50.188c0.009,0.205-0.041,0.416-0.148,0.605C54.954,70.766,54.447,71.66,45.096,71.66z    M36.554,69.125c0.629,0.182,2.593,0.535,8.349,0.535h0.193c5.757,0,7.72-0.354,8.35-0.535l4.809-48.786h-26.51L36.554,69.125z"/></g><text x="0" y="105" fill="#000000" font-size="5px" font-weight="bold" font-family="'Helvetica Neue', Helvetica, Arial-Unicode, Arial, Sans-serif">Created by Rob Anderson</text><text x="0" y="110" fill="#000000" font-size="5px" font-weight="bold" font-family="'Helvetica Neue', Helvetica, Arial-Unicode, Arial, Sans-serif">from the Noun Project</text></svg>