<svg xmlns="http://www.w3.org/2000/svg" xmlns:xlink="http://www.w3.org/1999/xlink" version="1.1" x="0px" y="0px" viewBox="0 0 90 112.5" enable-background="new 0 0 90 90" xml:space="preserve"><g><path d="M45.208,64.826c-0.01,0-0.02,0-0.029,0c-0.06-0.002-0.12-0.004-0.18-0.006c-0.06,0.002-0.12,0.004-0.18,0.006   c-0.077,0-0.149-0.004-0.221-0.018c-8.37-0.273-9.123-1.082-9.254-2.188c-0.006-0.053-0.014-0.123-0.014-0.205   c-0.001-0.473,0.272-1.369,2.764-2.043c0.031-0.008,0.062-0.016,0.094-0.021c3.22-0.73,3.789-3.096,3.861-3.49v-4.148   c0-0.756-1.848-1.783-3.126-2.203c-1.173-0.334-3.669-1.57-3.949-1.711c-0.038-0.02-0.075-0.041-0.111-0.064   c-5.495-3.692-4.382-9.577-4.017-11.509l0.023-0.122c0.344-1.807,4.121-10.364,4.551-11.335c0.16-0.361,0.519-0.595,0.914-0.595   h17.33c0.396,0,0.754,0.233,0.914,0.596c0.43,0.97,4.201,9.526,4.549,11.329l0.021,0.119c0.368,1.934,1.486,7.82-4.019,11.517   c-0.036,0.023-0.072,0.045-0.11,0.064c-0.279,0.139-2.77,1.377-3.982,1.723c-1.24,0.408-3.09,1.436-3.09,2.191v4.15   c0.068,0.375,0.638,2.799,3.902,3.498c2.976,0.803,2.846,1.898,2.803,2.26c-0.131,1.105-0.883,1.914-9.253,2.188   C45.337,64.82,45.274,64.826,45.208,64.826z M38.501,62.336c1.102,0.182,3.053,0.379,6.498,0.484   c3.445-0.105,5.396-0.303,6.498-0.484c-0.039-0.012-0.078-0.021-0.117-0.033c-4.846-1.035-5.402-5.066-5.423-5.238   c-0.006-0.041-0.008-0.082-0.008-0.123v-4.229c0-2.506,3.753-3.859,4.505-4.104c0.889-0.254,2.853-1.191,3.613-1.57   c4.35-2.963,3.455-7.671,3.117-9.449l-0.021-0.117c-0.219-1.132-2.509-6.564-4.15-10.3H36.988   c-1.645,3.735-3.937,9.167-4.152,10.302l-0.023,0.121c-0.336,1.776-1.225,6.483,3.114,9.443c0.765,0.379,2.731,1.316,3.583,1.559   c0.789,0.256,4.541,1.609,4.541,4.115v4.229c0,0.041-0.002,0.082-0.008,0.123c-0.021,0.172-0.573,4.188-5.447,5.246   C38.564,62.318,38.533,62.328,38.501,62.336z"/></g><text x="0" y="105" fill="#000000" font-size="5px" font-weight="bold" font-family="'Helvetica Neue', Helvetica, Arial-Unicode, Arial, Sans-serif">Created by Rob Anderson</text><text x="0" y="110" fill="#000000" font-size="5px" font-weight="bold" font-family="'Helvetica Neue', Helvetica, Arial-Unicode, Arial, Sans-serif">from the Noun Project</text></svg>