<svg xmlns="http://www.w3.org/2000/svg" xmlns:xlink="http://www.w3.org/1999/xlink" version="1.1" x="0px" y="0px" viewBox="0 0 47.655 125" enable-background="new 0 0 47.655 100" xml:space="preserve"><path d="M29.766,88.673H17.89c-3.508,0-6.188-0.925-7.964-2.749c-2.195-2.254-2.147-5.038-2.145-5.156L5,5.868  C4.992,5.641,5.076,5.42,5.234,5.256C5.392,5.092,5.61,5,5.837,5h35.981c0.227,0,0.444,0.092,0.603,0.256  c0.158,0.165,0.242,0.385,0.233,0.612l-2.78,74.953c0.003,0.064,0.051,2.849-2.144,5.103C35.954,87.748,33.275,88.673,29.766,88.673  z M25.877,86.998h3.888c3.026,0,5.296-0.748,6.747-2.223c1.706-1.736,1.689-3.945,1.688-3.968l2.749-74.133H6.706l2.749,74.084  c0,0.071-0.018,2.28,1.689,4.017c1.45,1.475,3.72,2.223,6.746,2.223H25.877z"/><path d="M38.416,94.979H9.249c-0.44,0-0.805-0.341-0.835-0.781L7.55,75.754c-0.031-0.461,0.317-0.86,0.778-0.893  c0.451-0.022,0.861,0.318,0.892,0.779l0.811,17.663h27.615l0.747-17.312c0.039-0.46,0.444-0.806,0.906-0.764  c0.46,0.039,0.802,0.444,0.764,0.904L39.25,94.212C39.214,94.646,38.851,94.979,38.416,94.979z"/><text x="0" y="115" fill="#000000" font-size="5px" font-weight="bold" font-family="'Helvetica Neue', Helvetica, Arial-Unicode, Arial, Sans-serif">Created by Gabriela Muñiz</text><text x="0" y="120" fill="#000000" font-size="5px" font-weight="bold" font-family="'Helvetica Neue', Helvetica, Arial-Unicode, Arial, Sans-serif">from the Noun Project</text></svg>