<svg xmlns="http://www.w3.org/2000/svg" xmlns:xlink="http://www.w3.org/1999/xlink" version="1.1" x="0px" y="0px" viewBox="0 0 90 112.5" enable-background="new 0 0 90 90" xml:space="preserve"><g><path d="M55.502,21.299c-3.347,5.75-0.771,11.844-0.771,11.844c5.75,14.415-2.889,17.592-2.889,17.592s-5.037,2.062-5.037,6.639   c0,3.853,0,4.157,0,4.157V61.52c0,0,0.086,1.831,2.66,2.862c2.576,1.03,4.864,1.514,4.864,1.514s9.726,2.806-9.271,2.806h-0.117   c-18.996,0-9.27-2.806-9.27-2.806s2.287-0.483,4.862-1.514c2.576-1.031,2.661-2.862,2.661-2.862v0.011c0,0,0-0.305,0-4.157   c0-4.577-5.035-6.639-5.035-6.639s-8.639-3.177-2.889-17.592c0,0,2.574-6.094-0.772-11.844h10.442h0.117H55.502 M55.502,19.299   H45.058h-0.117H34.499c-0.716,0-1.377,0.383-1.733,1.003c-0.357,0.62-0.355,1.385,0.005,2.003   c2.78,4.778,0.677,10.015,0.655,10.067c-2.438,6.112-2.785,11.177-1.044,15.083c1.631,3.658,4.491,4.924,5.03,5.135   c0.216,0.095,3.783,1.713,3.783,4.783v3.986c-0.053,0.174-0.306,0.726-1.404,1.166c-2.387,0.955-4.512,1.409-4.533,1.413   c-0.047,0.011-0.094,0.022-0.141,0.035c-1.053,0.304-4.258,1.229-3.912,3.672c0.305,2.155,2.28,3.056,13.736,3.056h0.117   c11.458,0,13.433-0.9,13.738-3.056c0.346-2.443-2.859-3.368-3.913-3.672c-0.046-0.014-0.093-0.025-0.141-0.035   c-0.02-0.004-2.164-0.466-4.535-1.414c-1.097-0.439-1.349-0.991-1.402-1.165v-3.986c0-3.063,3.561-4.686,3.783-4.783   c0.537-0.21,3.4-1.475,5.031-5.135c1.742-3.906,1.396-8.971-1.03-15.054c-0.034-0.082-2.14-5.318,0.642-10.097   c0.36-0.618,0.363-1.382,0.006-2.003C56.879,19.682,56.219,19.299,55.502,19.299L55.502,19.299z"/></g><text x="0" y="105" fill="#000000" font-size="5px" font-weight="bold" font-family="'Helvetica Neue', Helvetica, Arial-Unicode, Arial, Sans-serif">Created by Rob Anderson</text><text x="0" y="110" fill="#000000" font-size="5px" font-weight="bold" font-family="'Helvetica Neue', Helvetica, Arial-Unicode, Arial, Sans-serif">from the Noun Project</text></svg>