<svg xmlns="http://www.w3.org/2000/svg" xmlns:xlink="http://www.w3.org/1999/xlink" version="1.1" x="0px" y="0px" viewBox="0 0 90 112.5" enable-background="new 0 0 90 90" xml:space="preserve"><g><path d="M44.999,85.842c-3.258,0-7.394-0.497-7.568-0.518c-2.792-0.303-4.592-1.29-5.338-2.935   c-1.109-2.443,0.672-5.323,1.011-5.835c1.703-3.571,2.054-6.981,2.054-10.997c0-3.893-0.899-21.065-3.755-31.91   c-2.917-11.079-2.244-27.824-2.214-28.531c0.022-0.536,0.463-0.958,0.999-0.958h29.626c0.535,0,0.977,0.422,0.999,0.958   c0.03,0.707,0.699,17.452-2.22,28.531c-2.852,10.848-3.75,28.019-3.75,31.91c0,4.021,0.35,7.434,2.053,10.997   c0.338,0.51,2.121,3.39,1.012,5.834c-0.746,1.645-2.549,2.633-5.355,2.937C52.391,85.345,48.259,85.842,44.999,85.842z    M31.156,6.158c-0.098,3.75-0.271,17.673,2.181,26.979c2.904,11.035,3.82,28.471,3.82,32.42c0,3.732-0.277,7.761-2.282,11.93   c-0.024,0.049-0.052,0.096-0.082,0.14c-0.448,0.646-1.481,2.617-0.878,3.94c0.541,1.187,2.335,1.617,3.744,1.77   c0.055,0.007,4.204,0.505,7.34,0.505c3.14,0,7.283-0.498,7.324-0.504c1.424-0.153,3.219-0.585,3.761-1.771   c0.604-1.323-0.429-3.293-0.878-3.941c-0.029-0.043-0.058-0.09-0.08-0.137c-2.007-4.161-2.283-8.193-2.283-11.931   c0-3.948,0.914-21.381,3.816-32.419c2.453-9.312,2.283-23.231,2.186-26.98H31.156z"/></g><text x="0" y="105" fill="#000000" font-size="5px" font-weight="bold" font-family="'Helvetica Neue', Helvetica, Arial-Unicode, Arial, Sans-serif">Created by Rob Anderson</text><text x="0" y="110" fill="#000000" font-size="5px" font-weight="bold" font-family="'Helvetica Neue', Helvetica, Arial-Unicode, Arial, Sans-serif">from the Noun Project</text></svg>