<svg xmlns:dc="http://purl.org/dc/elements/1.1/" xmlns:cc="http://creativecommons.org/ns#" xmlns:rdf="http://www.w3.org/1999/02/22-rdf-syntax-ns#" xmlns:svg="http://www.w3.org/2000/svg" xmlns="http://www.w3.org/2000/svg" xmlns:sodipodi="http://sodipodi.sourceforge.net/DTD/sodipodi-0.dtd" xmlns:inkscape="http://www.inkscape.org/namespaces/inkscape" version="1.1" x="0px" y="0px" viewBox="0 0 100 125"><g transform="translate(0,-952.36218)"><path style="text-indent:0;text-transform:none;direction:ltr;block-progression:tb;baseline-shift:baseline;color:#000000;enable-background:accumulate;" d="m 35.329419,957.86291 c -0.4632,0.0417 -0.86721,0.44568 -0.90897,0.9088 -2.03057,22.33192 4.00712,55.36929 3.00902,86.30419 0.21003,1.1529 1.21314,1.2062 2.13138,1.3476 3.61922,0.4011 7.59045,0.436 10.90769,0.4387 3.77507,-0.036 7.3051,-0.044 10.87634,-0.4387 1.20881,-0.1086 1.78594,-0.3371 2.16273,-1.3476 -0.9988,-30.9564 4.03385,-64.00228 2.00601,-86.30419 -0.0464,-0.49296 -0.50776,-0.91093 -1.00301,-0.9088 l -29.08715,0 c -0.0313,-0.001 -0.0627,-0.001 -0.094,0 z m 1.0657,2.00562 27.14383,0 c 1.76574,21.64986 -2.93032,53.92837 -2.03735,84.51797 -3.70594,0.4421 -7.73932,0.4673 -11.03306,0.4701 -3.78727,-0.096 -7.50361,0.019 -11.03306,-0.4701 0.87812,-30.6104 -4.77816,-62.89651 -3.04036,-84.51797 z" fill="#000000" fill-opacity="1" stroke="none" marker="none" visibility="visible" display="inline" overflow="visible"/></g><text x="0" y="115" fill="#000000" font-size="5px" font-weight="bold" font-family="'Helvetica Neue', Helvetica, Arial-Unicode, Arial, Sans-serif">Created by art shop</text><text x="0" y="120" fill="#000000" font-size="5px" font-weight="bold" font-family="'Helvetica Neue', Helvetica, Arial-Unicode, Arial, Sans-serif">from the Noun Project</text></svg>